<?xml version="1.0" encoding="utf-8"?>
<!-- Generator: Adobe Illustrator 16.0.0, SVG Export Plug-In . SVG Version: 6.00 Build 0)  -->
<!DOCTYPE svg PUBLIC "-//W3C//DTD SVG 1.1//EN" "http://www.w3.org/Graphics/SVG/1.1/DTD/svg11.dtd">
<svg version="1.1" id="Layer_1" xmlns="http://www.w3.org/2000/svg" xmlns:xlink="http://www.w3.org/1999/xlink" x="0px" y="0px"
	 width="391.089px" height="197.582px" viewBox="0 0 391.089 197.582" enable-background="new 0 0 391.089 197.582"
	 xml:space="preserve">
<g>
	<g>
		<path d="M318.646,131.956H213.085c-40.168,0-66.341-24.537-60.525-65.977C158.012,27.083,192.366,0,230.534,0
			c38.17,0,64.889,27.265,59.436,65.979c-2.545,18.175-11.74,35.4-30.463,43.215l-1.346,0.951h63.574L318.646,131.956z
			 M215.63,105.783c21.631,0,41.805-17.63,44.895-39.804c3.09-22.176-11.994-39.806-33.625-39.806
			c-21.629,0-41.805,17.63-44.894,39.806C178.915,88.153,194.001,105.783,215.63,105.783z"/>
	</g>
	<g>
		<g>
			<path fill="#1E88E5" d="M343.993,110.652c0.314,0.074,1.777,0.561,2.098,0.638c1.59,0.39,3.006,1.276,4.467,1.942l34.041-68.691
				h-24.461l-0.375-0.002l-9.779,20.76c-0.303,1.23-1.164,2.243-2.092,4.204c-1.479,2.919-4.461,10.123-5.418,14.108
				c-0.146,0.834-0.313,1.498-0.438,1.982c-0.35,1.163-0.723,3.168-0.465,5.598c0.234,2.219,0.189,4.613,0.105,6.867
				c-0.145,2.472-0.883,3.512-1.539,5.046c-0.395,1.171-0.971,2.844-1.023,3.745c-0.021,0.373,0.057,1.507,0.146,1.877
				C339.405,109.489,341.989,110.048,343.993,110.652z"/>
			<path fill="#1E88E5" d="M341.622,121.208l-7.693,0.724c-5.201,0.553-6.871-4.644-7.494-7.461
				c-0.152-0.633-0.021-1.772-0.172-2.401c-0.264-1.381-0.277-2.744-0.797-4.494c-0.852-2.857-0.738-6.61-3.57-10.128
				c-0.369-0.441-0.883-0.928-1.166-1.375c-1.283-1.559-3.189-4.393-4.178-5.749c-2.881-3.956-4.25-6.575-2.117-11.007
				c2.184-4.411,5.535-4.97,7.986-5.405c0.98-0.104,2.061,0.013,2.732-0.362c0.949-0.348,2.83-3.937,3.402-6.971l2.666-22.039
				h-34.377l-24.664,54.86h-0.359l-1.842-10.033l-8.23-44.827h-12.168H232.97l7.811,34.506l6.316,27.911l0.045,0.199l5.613,24.801
				h27.16l10.367-24.801l13.914-33.297h0.359l5.773,33.297l4.299,24.801h22.141h4.48l5.605-11.303L341.622,121.208z"/>
		</g>
	</g>
	<g>
		<path fill="#1E88E5" d="M158.869,36.112c1.247-2.035,2.019-3.056,3.487-4.999h-51.858l-5.69,4.999H158.869z"/>
		<path fill="#1E88E5" d="M154.418,44.112c1.4-2.896,1.4-2.896,2.629-4.999h-55.656l-5.69,4.999H154.418z"/>
		<path fill="#1E88E5" d="M164.793,28.112c1.704-2.068,2.813-3.181,4.58-4.999h-49.77l-5.691,4.999H164.793z"/>
		<path fill="#1E88E5" d="M147.139,80.779c-0.084-1.953-0.159-2.961-0.1-4.999H59.655l-5.689,4.999H147.139z"/>
		<path fill="#1E88E5" d="M148.036,64.78c0.006-0.039,0.008-0.078,0.014-0.117c0.279-1.99,0.52-2.945,0.93-4.883H77.868l-5.691,5
			H148.036z"/>
		<path fill="#1E88E5" d="M147.173,72.779c0.104-1.958,0.199-2.965,0.439-4.999H68.761l-5.69,4.999H147.173z"/>
		<path fill="#1E88E5" d="M152.084,101.613c-1.016-2.107-1.229-2.963-2.006-5H35.942l-5.691,5H152.084z"/>
		<path fill="#1E88E5" d="M156.778,109.612c-1.309-1.907-1.988-2.877-3.18-4.999H26.835l-5.689,4.999H156.778z"/>
		<path fill="#1E88E5" d="M164.137,117.612c-2.025-1.811-2.898-2.654-4.991-4.999H17.73l-5.69,4.999H164.137z"/>
		<line fill="#1E88E5" x1="95.701" y1="44.112" x2="101.391" y2="39.113"/>
	</g>
	<g>
		<path fill="#1E88E5" d="M61.246,196.623H26.964c-17.66,0-29.167-10.788-26.609-29.008c2.396-17.101,17.5-29.007,34.281-29.007
			s28.527,11.986,26.131,29.007c-1.119,7.991-5.754,15.822-13.984,19.259v0.16h15.822L61.246,196.623z M28.083,185.116
			c9.51,0,18.379-7.752,19.738-17.501c1.357-9.749-5.275-17.5-14.784-17.5s-18.38,7.751-19.737,17.5
			C11.941,177.364,18.574,185.116,28.083,185.116z"/>
		<path fill="#1E88E5" d="M103.274,196.623H91.767l0.719-5.274h-0.16c-1.997,3.037-6.393,6.233-12.226,6.233
			c-12.146,0-13.265-7.991-11.747-18.38l2.957-21.415h11.986l-2.637,19.019c-0.64,4.475-1.359,10.229,4.795,10.229
			c6.232,0,7.83-4.875,8.55-9.909l2.717-19.338h11.987L103.274,196.623z"/>
		<path fill="#1E88E5" d="M117.334,157.787h11.986l-5.434,38.836H111.9L117.334,157.787z M126.044,138.608
			c3.836,0,6.553,3.116,5.993,6.952s-4.075,6.952-7.911,6.952s-6.553-3.116-5.993-6.952S122.208,138.608,126.044,138.608z"/>
		<path fill="#1E88E5" d="M162.482,170.333c-0.959-1.679-3.037-2.957-5.514-2.957c-5.994,0-10.148,3.995-10.947,9.829
			c-0.8,5.833,2.236,9.829,8.23,9.829c2.637,0,4.715-1.358,6.313-2.957l6.713,8.311c-4.236,3.836-9.989,5.194-14.544,5.194
			c-11.987,0-20.457-7.991-18.699-20.377c1.759-12.387,12.466-20.377,24.452-20.377c4.555,0,9.909,1.358,13.105,5.193
			L162.482,170.333z"/>
		<path fill="#1E88E5" d="M179.5,136.211h11.986l-5.193,36.919l15.421-15.343h14.705l-17.82,17.5l12.785,21.336H196.28
			l-10.308-19.658h-0.16l-2.797,19.658h-11.986L179.5,136.211z"/>
		<path fill="#1E88E5" d="M216.255,157.787h12.787l4.475,24.372h0.16l10.068-24.372h13.105l3.756,24.372h0.158l10.709-24.372h12.146
			l-19.258,38.836h-11.828l-4.475-25.811h-0.16l-10.787,25.811h-12.066L216.255,157.787z"/>
		<path fill="#1E88E5" d="M307.108,191.748h-0.16c-3.275,4.156-8.311,5.834-13.184,5.834c-7.273,0-13.186-4.155-12.146-11.986
			c1.918-13.425,18.219-13.665,28.207-13.665c0.641-4.235-2.477-6.952-6.633-6.952c-3.914,0-7.432,1.758-10.387,4.635l-5.514-6.553
			c4.953-4.155,11.666-6.232,17.979-6.232c13.984,0,16.701,7.111,14.943,20.057l-2.797,19.738H306.39L307.108,191.748z
			 M305.831,179.603c-3.676,0-11.908,0.319-12.627,5.594c-0.398,2.876,2.479,4.234,5.115,4.234c4.715,0,9.43-2.477,10.068-7.271
			l0.398-2.557H305.831z"/>
		<path fill="#1E88E5" d="M333.556,136.211h11.986l-8.471,60.412h-11.986L333.556,136.211z"/>
		<path fill="#1E88E5" d="M354.171,136.211h11.986l-5.193,36.919l15.422-15.343h14.703l-17.818,17.5l12.785,21.336h-15.104
			l-10.309-19.658h-0.16l-2.797,19.658H345.7L354.171,136.211z"/>
	</g>
	<g>
		<g>
			<path fill="#1075B2" d="M332.579,122.367c-5.322,0-6.389-6.282-6.85-9.004c-0.096-0.561-0.182-1.167-0.271-1.811
				c-0.07-0.511-0.133-1.05-0.197-1.617c-0.426-3.688-0.955-8.278-4.643-13.303c-0.369-0.507-0.695-0.955-0.982-1.346l-0.021,0.017
				c-0.275-0.369-0.506-0.679-0.699-0.938c-0.205-0.275-0.408-0.546-0.609-0.812c-4.104-5.465-7.07-9.414-4.08-14.925
				c2.531-4.673,6.346-5.045,8.871-5.291c0.906-0.088,1.762-0.172,2.379-0.411c0.906-0.351,2.449-4.468,3.076-9.249l2.373-19.139
				h1.008l-2.389,19.266c-0.496,3.773-1.973,9.384-3.707,10.055c-0.746,0.289-1.668,0.379-2.643,0.475
				c-2.59,0.252-5.813,0.566-8.09,4.771c-2.629,4.845-0.131,8.342,3.754,13.519c0.02,0.02,0.041,0.042,0.063,0.066l0.012-0.007
				c0.01,0.015,0.029,0.043,0.061,0.087c0.355,0.415,1.014,1.32,2.432,3.272c3.844,5.236,4.414,10.173,4.828,13.778
				c0.064,0.559,0.127,1.091,0.195,1.594c0.088,0.633,0.174,1.229,0.268,1.78c0.465,2.741,1.424,8.466,6.221,8.161l17.898-1.042
				c0.045-0.003,0.09-0.011,0.135-0.022c0.197-0.054,1.961-0.573,2.322-2.053c0.271-1.097-0.328-2.327-1.775-3.659
				c-1.916-1.754-4.969-2.653-7.66-3.447c-2.99-0.882-5.115-1.59-5.295-2.687c-0.227-1.403,0.33-2.758,0.975-4.325
				c0.648-1.583,1.375-3.358,1.605-5.681c0.225-2.248,0.074-4.773-0.057-7.001c-0.143-2.427-0.277-4.719,0.109-5.971
				c0.139-0.452,0.34-1.128,0.58-1.955c1.129-3.838,3.799-10.822,5.426-13.742l12.563-25.232l1.084,0.002l-12.762,25.696
				c-1.607,2.887-4.236,9.77-5.35,13.557c-0.242,0.832-0.445,1.514-0.586,1.969c-0.332,1.08-0.203,3.284-0.066,5.617
				c0.133,2.266,0.285,4.833,0.053,7.159c-0.244,2.468-1,4.315-1.668,5.945c-0.619,1.504-1.102,2.678-0.92,3.802
				c0.178,0.586,3.381,1.531,4.588,1.887c2.799,0.825,5.969,1.76,8.057,3.67c1.738,1.599,2.436,3.158,2.07,4.636
				c-0.486,1.992-2.611,2.665-3.031,2.779c-0.113,0.03-0.225,0.048-0.336,0.055l-17.9,1.042
				C332.854,122.363,332.716,122.367,332.579,122.367z"/>
		</g>
	</g>
</g>
</svg>
